<?xml version="1.0" encoding="UTF-8" standalone="no"?>
<!-- Created with Inkscape (http://www.inkscape.org/) -->

<svg
   xmlns:ns1="http://wanglongqi.github.io/WriteTeX"
   xmlns:dc="http://purl.org/dc/elements/1.1/"
   xmlns:cc="http://creativecommons.org/ns#"
   xmlns:rdf="http://www.w3.org/1999/02/22-rdf-syntax-ns#"
   xmlns:svg="http://www.w3.org/2000/svg"
   xmlns="http://www.w3.org/2000/svg"
   xmlns:sodipodi="http://sodipodi.sourceforge.net/DTD/sodipodi-0.dtd"
   xmlns:inkscape="http://www.inkscape.org/namespaces/inkscape"
   width="90.179214mm"
   height="54.969681mm"
   viewBox="0 0 90.179213 54.969681"
   version="1.1"
   id="svg25976"
   inkscape:version="0.92.1 r15371"
   sodipodi:docname="logo2.svg">
  <sodipodi:namedview
     id="base"
     pagecolor="#ffffff"
     bordercolor="#666666"
     borderopacity="1.0"
     inkscape:pageopacity="0.0"
     inkscape:pageshadow="2"
     inkscape:zoom="1.671875"
     inkscape:cx="193.31192"
     inkscape:cy="109.65581"
     inkscape:document-units="mm"
     inkscape:current-layer="flowRoot26814"
     showgrid="true"
     inkscape:window-width="1918"
     inkscape:window-height="1042"
     inkscape:window-x="0"
     inkscape:window-y="18"
     inkscape:window-maximized="0"
     inkscape:snap-global="false">
    <inkscape:grid
       type="xygrid"
       id="grid26682"
       originx="-72.019609"
       originy="-113.20348" />
  </sodipodi:namedview>
  <defs
     id="defs25970" />
  <metadata
     id="metadata25973">
    <rdf:RDF>
      <cc:Work
         rdf:about="">
        <dc:format>image/svg+xml</dc:format>
        <dc:type
           rdf:resource="http://purl.org/dc/dcmitype/StillImage" />
        <dc:title />
      </cc:Work>
    </rdf:RDF>
  </metadata>
  <g
     inkscape:label="Layer 1"
     inkscape:groupmode="layer"
     id="layer1"
     transform="translate(-72.019614,-128.82684)">
    <flowRoot
       xml:space="preserve"
       id="flowRoot26521"
       style="font-style:normal;font-variant:normal;font-weight:normal;font-stretch:normal;font-size:2px;line-height:1.25;font-family:rsfs10;-inkscape-font-specification:rsfs10;letter-spacing:0px;word-spacing:0px;fill:#000000;fill-opacity:1;stroke:none"><flowRegion
         id="flowRegion26523"
         style="font-style:normal;font-variant:normal;font-weight:normal;font-stretch:normal;font-family:rsfs10;-inkscape-font-specification:rsfs10"><rect
           id="rect26525"
           width="502.4299"
           height="297.35648"
           x="92.283043"
           y="478.24731"
           style="font-style:normal;font-variant:normal;font-weight:normal;font-stretch:normal;font-family:rsfs10;-inkscape-font-specification:rsfs10" /></flowRegion><flowPara
         id="flowPara26527" /></flowRoot>    <g
       id="g26635"
       transform="matrix(1.2284941,0,0,1.2284941,-171.94353,48.433129)"
       ns1:text="Loop Acceleration Tool">
      <g
         id="g26802"
         transform="translate(0,-2.5844651)">
        <g
           id="g26861">
          <g
             ns1:text="$\\mathbb{LoAT}$"
             transform="matrix(6.8097232,0,0,6.8097232,-1047.8294,-648.52621)"
             id="g26547">
            <g
               id="surface1">
              <g
                 style="fill:#000000;fill-opacity:1"
                 id="g26544">
                <g
                   transform="matrix(0.04653386,0,0,0.04653386,171.00082,80.967758)"
                   style="font-style:normal;font-variant:normal;font-weight:normal;font-stretch:normal;font-size:2px;line-height:1.25;font-family:rsfs10;-inkscape-font-specification:rsfs10;letter-spacing:0px;word-spacing:0px;fill:#000000;fill-opacity:1;stroke:none"
                   id="flowRoot26804" />
                <g
                   aria-label="LoAT"
                   transform="matrix(0.08255266,0,0,0.08255266,162.03234,83.223074)"
                   style="font-style:normal;font-weight:normal;font-size:66.66666412px;line-height:1.25;font-family:sans-serif;letter-spacing:0px;word-spacing:0px;fill:#000000;fill-opacity:1;stroke:none"
                   id="flowRoot26814">
                  <path
                     d="m 255.72405,279.05349 q -0.93333,1.2 -1.13333,2.53333 -0.2,1.26667 0.13333,2.46667 0.4,1.13333 1.06667,2.53333 0.73333,1.4 1.46667,2.66667 0.73333,1.2 1.33333,2.8 0.66667,1.6 0.86667,3.06667 0.26666,1.6 0.86666,5.46666 0.6,3.86667 0.73334,5.53334 0.2,1.6 0.0667,4.6 -0.0667,2.93333 -0.73333,5.8 -0.26667,1.13333 -1.2,2.33333 -0.86667,1.2 -1.86667,2 -0.93333,0.8 -1.8,1.86667 -0.86666,1 -1.06666,1.8 -0.13334,0.8 0.53333,2 1.26667,1.8 3,2.13333 1.8,0.33333 3.8,-0.46667 2,-0.8 4,-1.86666 2.06667,-1.06667 4.6,-1.93334 2.53333,-0.93333 4.6,-0.86666 1.93333,0.0667 4.13333,0.93333 2.2,0.86667 3.86667,1.86667 1.73333,0.93333 3.46667,1.73333 1.8,0.8 3.53333,0.73333 1.73333,-0.13333 3.26667,-1.46666 2.4,-2.13334 2.26666,-5.33334 -0.13333,-3.2 -2.46666,-5.66666 -1.46667,-1.6 -3.4,-2 -1.93334,-0.4 -3.93334,0 -1.93333,0.4 -4,0.93333 -2.06666,0.46667 -4.46666,0.4 -2.4,-0.0667 -4.46667,-1.13333 -2.2,-1.2 -3.46667,-2.93334 -1.2,-1.73333 -1.46666,-3.93333 -0.26667,-2.26667 -0.2,-4.33333 0.0667,-2.06667 0.26666,-5 0.2,-3 0.0667,-5 -0.0667,-1.53334 0.4,-3.26667 0.53333,-1.73333 1.13333,-3.06667 0.6,-1.4 1.06667,-2.8 0.46667,-1.4 0.26667,-2.73333 -0.2,-1.4 -1.26667,-2.6 -2.66667,-3 -7,-3 -4.33333,0 -6.86667,3.2 z"
                     style="font-style:normal;font-variant:normal;font-weight:normal;font-stretch:normal;font-family:StayPuft;-inkscape-font-specification:StayPuft"
                     id="path26864"
                     inkscape:connector-curvature="0" />
                  <path
                     d="m 323.61809,283.42409 q 2.93334,-0.66667 4.86667,2.06666 1.93333,2.66667 2.33333,6.33334 0.26667,2.46666 -0.66666,4.4 -0.93334,1.93333 -3.06667,2.66666 -2,0.6 -3.8,-0.26666 -1.73333,-0.93334 -2.66667,-2.86667 -1.06666,-2.33333 -1.26666,-4.93333 -0.13334,-2.6 0.93333,-4.73334 1.06667,-2.13333 3.33333,-2.66666 z m 1,22.4 q 2.33334,0 4.06667,1.33333 1.8,1.33333 2.86667,3.4 1.13333,2 2.2,4.13333 1.13333,2.06667 2.86666,3.86667 1.73334,1.73333 4,2.26667 1.93334,0.66666 4.26667,0.26666 2.33333,-0.46666 2.33333,-2.26666 0,-4.4 -0.73333,-8.26667 -0.66667,-3.86667 -2.46667,-8.13333 -1.73333,-4.33334 -3.13333,-7.06667 -1.4,-2.73333 -4.46667,-8.33333 -0.4,-0.73334 -1.13333,-2.06667 -1.53333,-2.8 -2.33333,-4.13333 -0.8,-1.4 -2.26667,-3.33334 -1.4,-2 -3.06667,-3.46666 -1.66666,-1.46667 -3.93333,-2.8 -2.53333,-1.6 -5.46667,-2.13334 -2.86666,-0.53333 -5.53333,0.33334 -2.6,0.86666 -3.8,3.4 -0.53333,1.2 0.13333,2.2 0.66667,1 1.8,1.73333 1.13334,0.66667 2.26667,1.8 1.2,1.06667 1.4,2.26667 0.93333,4.06666 0.93333,7.66666 0.0667,3.53334 -0.8,7.06667 -0.86666,3.53333 -2.13333,6.6 -1.26667,3.06667 -3.4,7.26667 -0.8,1.6 -2.8,2.93333 -2,1.33333 -3.73333,2.13333 -1.73334,0.8 -2.8,2.13334 -1,1.26666 -0.26667,3 0.4,0.86666 1,1.4 0.66667,0.53333 1.53333,0.6 0.93334,0.0667 1.66667,0.0667 0.8,-0.0667 2,-0.4 1.26667,-0.4 1.93333,-0.66666 0.73334,-0.26667 2,-0.8 0.13334,-0.0667 0.13334,-0.0667 0.0667,0 0.13333,-0.0667 0.13333,-0.0667 0.2,-0.0667 2,-0.8 3.53333,-2.53334 1.53334,-1.73333 2.53334,-3.6 1,-1.86666 2,-3.6 1.06666,-1.8 2.66666,-2.93333 1.6,-1.13333 3.8,-1.13333 z"
                     style="font-style:normal;font-variant:normal;font-weight:normal;font-stretch:normal;font-family:StayPuft;-inkscape-font-specification:StayPuft"
                     id="path26868"
                     inkscape:connector-curvature="0" />
                  <path
                     d="m 340.49053,269.1254 q -3.2,0.93333 -4.26666,4.6 -1.06667,3.6 0.86666,6.4 1.13334,1.73333 3.26667,1.8 2.2,0 4.26667,-0.8 2.13333,-0.86667 4.46666,-0.93334 2.33333,-0.13333 3.8,1.33334 2.33333,2.4 3.06667,5.53333 0.8,3.13333 0.46666,5.53333 -0.26666,2.4 -1.06666,6.66667 -0.8,4.26667 -1.06667,6.66667 -0.13333,1.2 -0.86667,2.66666 -0.73333,1.4 -1.33333,2.33334 -0.6,0.86666 -0.86667,2.2 -0.2,1.26666 0.66667,2.2 3.06667,4.06666 8.66667,4.26666 5.6,0.13334 8.66666,-3.86666 0.86667,-0.93334 0.53334,-2.13334 -0.26667,-1.26666 -0.93334,-2.13333 -0.66666,-0.93333 -1.46666,-2.33333 -0.8,-1.4 -0.93334,-2.6 -0.2,-2.13334 -0.86666,-5.53334 -0.6,-3.4 -0.86667,-5.46666 -0.26667,-2.13334 -0.26667,-4.73334 0.0667,-2.66666 1.06667,-4.86666 1,-2.2 2.93333,-4.2 1.33334,-1.26667 3.33334,-1.2 2,0 3.8,0.73333 1.8,0.66667 3.73333,0.66667 2,0 3.2,-1.4 1.6,-1.86667 2.2,-4.46667 0.6,-2.6 -0.2,-4.86667 -0.8,-2.33333 -3,-3.06666 -4.13333,-1.4 -9.53333,-1.53334 -5.4,-0.2 -10.66667,0.13334 -1.2,0 -3.66667,0.0667 -2.46666,0 -3.46666,0.0667 -0.93334,0 -2.86667,0.13333 -1.93333,0.13334 -3.33333,0.4 -1.33333,0.2 -3.33333,0.66667 -1.93334,0.4 -4.13334,1.06667 z"
                     style="font-style:normal;font-variant:normal;font-weight:normal;font-stretch:normal;font-family:StayPuft;-inkscape-font-specification:StayPuft"
                     id="path26870"
                     inkscape:connector-curvature="0" />
                  <g
                     aria-label="Loop Acceleration Tool"
                     style="font-style:normal;font-weight:normal;font-size:0.57762498px;line-height:1.25;font-family:sans-serif;letter-spacing:0px;word-spacing:0px;fill:#000000;fill-opacity:1;stroke:none;stroke-width:0.28881249"
                     id="text27028"
                     transform="matrix(0.73075773,0,0,0.73075773,94.256366,91.928212)">
                    <path
                       d="m 219.26493,331.0867 q 0.40427,0 0.79913,0.009 0.39486,0.009 0.79912,0.009 -0.13162,1.49483 -0.20683,2.95206 -0.0752,1.44782 -0.0846,2.88624 -0.009,1.43842 0.0376,2.88625 0.0564,1.44782 0.17863,2.92385 0.6675,0.094 1.21278,0.15982 0.54529,0.0564 1.01536,0.0846 0.47947,0.0282 0.91194,0.0282 0.44187,-0.009 0.90254,-0.0376 0.46067,-0.0376 0.97775,-0.094 0.51708,-0.0564 1.15638,-0.14102 0.18803,-0.0376 0.31025,-0.24444 0.12222,-0.20683 0.17862,-0.47947 0.0658,-0.28205 0.0564,-0.59229 -0.009,-0.31025 -0.10341,-0.56409 -0.094,-0.26324 -0.27264,-0.41367 -0.16923,-0.15982 -0.44187,-0.13162 -0.26324,0.0282 -0.43247,0.18803 -0.15982,0.15983 -0.25384,0.38546 -0.094,0.22564 -0.13162,0.48888 -0.0282,0.26324 -0.0282,0.49827 -0.094,0 -0.26324,-0.0282 -0.16923,-0.0282 -0.35726,-0.0564 -0.17863,-0.0376 -0.34785,-0.0658 -0.16923,-0.0282 -0.26324,-0.0282 0.094,-0.36666 0.30084,-0.77092 0.21624,-0.41367 0.52648,-0.74272 0.31965,-0.32905 0.71451,-0.51708 0.40427,-0.18802 0.88374,-0.10341 0.45127,0.094 0.73331,0.39486 0.29145,0.30085 0.43247,0.72391 0.14102,0.41366 0.13162,0.89314 0,0.47007 -0.12222,0.90254 -0.12222,0.43246 -0.36665,0.78032 -0.23504,0.34785 -0.57349,0.49827 -0.72391,-0.0188 -1.34441,-0.0282 -0.6205,-0.009 -1.20339,-0.009 -0.57348,0 -1.13757,0.009 -0.55469,0.0188 -1.14698,0.0376 -0.58289,0.0282 -1.23159,0.0658 -0.6393,0.0376 -1.39141,0.0846 -0.13162,0 -0.26324,-0.12222 -0.12222,-0.11282 -0.21624,-0.28204 -0.094,-0.16923 -0.14102,-0.34786 -0.047,-0.18803 -0.0282,-0.32905 0.26324,-2.93325 0.25384,-5.8665 -0.009,-2.93325 -0.15983,-5.89471 z"
                       style="font-style:normal;font-variant:normal;font-weight:normal;font-stretch:normal;font-size:19.25416565px;font-family:'Penguin Attack';-inkscape-font-specification:'Penguin Attack';stroke-width:0.28881249"
                       id="path27030"
                       inkscape:connector-curvature="0" />
                    <path
                       d="m 233.64915,336.9532 q -0.6205,0.0564 -1.07177,0.33846 -0.45127,0.28204 -0.74271,0.72391 -0.28204,0.43246 -0.42307,0.97775 -0.14102,0.53588 -0.14102,1.09997 0,0.53588 0.14102,1.09997 0.15043,0.56408 0.45127,1.02476 0.31025,0.46067 0.78032,0.76151 0.47948,0.29145 1.14698,0.29145 0.57349,0 1.02476,-0.27264 0.45127,-0.27265 0.76152,-0.71451 0.31024,-0.44187 0.47007,-0.99656 0.16922,-0.55468 0.16922,-1.11877 0,-0.38546 -0.0658,-0.85553 -0.0564,-0.47007 -0.19743,-0.87434 -0.14102,-0.41366 -0.37605,-0.6863 -0.22564,-0.27264 -0.55469,-0.27264 -0.22563,0 -0.47007,0.24443 -0.24444,0.24444 -0.46067,0.6205 -0.21624,0.37606 -0.39486,0.82733 -0.16923,0.44186 -0.26324,0.83673 -0.094,0.39486 -0.10342,0.6863 0,0.28204 0.13162,0.34785 0.17863,0.0846 0.31965,-0.0282 0.15042,-0.11282 0.25384,-0.31965 0.11282,-0.20683 0.18803,-0.46067 0.0752,-0.25384 0.12222,-0.45127 0.0846,0.0376 0.22563,0.11282 0.15042,0.0658 0.30085,0.14102 0.15982,0.0752 0.30084,0.14102 0.15043,0.0658 0.23504,0.094 -0.0846,0.28204 -0.27264,0.55468 -0.17863,0.27264 -0.43247,0.48888 -0.25384,0.21623 -0.55468,0.35725 -0.29145,0.13162 -0.5923,0.13162 -0.30084,0 -0.48887,-0.10341 -0.18803,-0.10342 -0.30085,-0.28205 -0.10341,-0.17862 -0.15042,-0.40426 -0.0376,-0.23504 -0.0376,-0.47947 0,-0.40427 0.094,-0.84613 0.094,-0.44187 0.25384,-0.86494 0.15982,-0.43246 0.37606,-0.81792 0.22563,-0.38546 0.47947,-0.67691 0.25384,-0.29144 0.52648,-0.46067 0.27264,-0.17863 0.55469,-0.17863 0.59229,0 1.09056,0.28205 0.50768,0.28204 0.86494,0.75211 0.36665,0.47008 0.57349,1.09057 0.20683,0.6111 0.20683,1.2786 0,0.78972 -0.29145,1.51363 -0.29144,0.71451 -0.79912,1.2598 -0.50768,0.54528 -1.18458,0.86493 -0.67691,0.32905 -1.43843,0.32905 -0.87433,0 -1.60764,-0.34785 -0.73332,-0.33846 -1.2692,-0.89314 -0.52648,-0.56409 -0.81792,-1.2786 -0.29145,-0.71451 -0.27265,-1.44782 0.009,-0.77092 0.29145,-1.44782 0.28204,-0.68631 0.77092,-1.21279 0.48887,-0.52648 1.15638,-0.85553 0.6769,-0.32905 1.47602,-0.39486 z"
                       style="font-style:normal;font-variant:normal;font-weight:normal;font-stretch:normal;font-size:19.25416565px;font-family:'Penguin Attack';-inkscape-font-specification:'Penguin Attack';stroke-width:0.28881249"
                       id="path27032"
                       inkscape:connector-curvature="0" />
                    <path
                       d="m 242.86257,336.9532 q -0.6205,0.0564 -1.07177,0.33846 -0.45127,0.28204 -0.74271,0.72391 -0.28205,0.43246 -0.42307,0.97775 -0.14102,0.53588 -0.14102,1.09997 0,0.53588 0.14102,1.09997 0.15043,0.56408 0.45127,1.02476 0.31025,0.46067 0.78032,0.76151 0.47948,0.29145 1.14698,0.29145 0.57349,0 1.02476,-0.27264 0.45127,-0.27265 0.76151,-0.71451 0.31025,-0.44187 0.47008,-0.99656 0.16922,-0.55468 0.16922,-1.11877 0,-0.38546 -0.0658,-0.85553 -0.0564,-0.47007 -0.19743,-0.87434 -0.14102,-0.41366 -0.37606,-0.6863 -0.22563,-0.27264 -0.55468,-0.27264 -0.22564,0 -0.47007,0.24443 -0.24444,0.24444 -0.46067,0.6205 -0.21624,0.37606 -0.39487,0.82733 -0.16922,0.44186 -0.26324,0.83673 -0.094,0.39486 -0.10341,0.6863 0,0.28204 0.13162,0.34785 0.17863,0.0846 0.31965,-0.0282 0.15042,-0.11282 0.25384,-0.31965 0.11281,-0.20683 0.18803,-0.46067 0.0752,-0.25384 0.12221,-0.45127 0.0846,0.0376 0.22564,0.11282 0.15042,0.0658 0.30085,0.14102 0.15982,0.0752 0.30084,0.14102 0.15043,0.0658 0.23504,0.094 -0.0846,0.28204 -0.27264,0.55468 -0.17863,0.27264 -0.43247,0.48888 -0.25384,0.21623 -0.55469,0.35725 -0.29144,0.13162 -0.59229,0.13162 -0.30084,0 -0.48887,-0.10341 -0.18803,-0.10342 -0.30085,-0.28205 -0.10341,-0.17862 -0.15042,-0.40426 -0.0376,-0.23504 -0.0376,-0.47947 0,-0.40427 0.094,-0.84613 0.094,-0.44187 0.25384,-0.86494 0.15982,-0.43246 0.37605,-0.81792 0.22564,-0.38546 0.47948,-0.67691 0.25384,-0.29144 0.52648,-0.46067 0.27264,-0.17863 0.55468,-0.17863 0.5923,0 1.09057,0.28205 0.50768,0.28204 0.86494,0.75211 0.36665,0.47008 0.57348,1.09057 0.20684,0.6111 0.20684,1.2786 0,0.78972 -0.29145,1.51363 -0.29144,0.71451 -0.79912,1.2598 -0.50768,0.54528 -1.18458,0.86493 -0.67691,0.32905 -1.43843,0.32905 -0.87433,0 -1.60764,-0.34785 -0.73332,-0.33846 -1.2692,-0.89314 -0.52648,-0.56409 -0.81793,-1.2786 -0.29144,-0.71451 -0.27264,-1.44782 0.009,-0.77092 0.29145,-1.44782 0.28204,-0.68631 0.77092,-1.21279 0.48887,-0.52648 1.15637,-0.85553 0.67691,-0.32905 1.47603,-0.39486 z"
                       style="font-style:normal;font-variant:normal;font-weight:normal;font-stretch:normal;font-size:19.25416565px;font-family:'Penguin Attack';-inkscape-font-specification:'Penguin Attack';stroke-width:0.28881249"
                       id="path27034"
                       inkscape:connector-curvature="0" />
                    <path
                       d="m 248.45643,347.79307 q 0.15042,-1.08116 0.17863,-2.24694 0.0376,-1.16578 0.009,-2.33156 -0.0188,-1.16578 -0.0658,-2.30336 -0.0376,-1.13757 -0.0376,-2.16233 0,-0.57349 0.12222,-1.08117 0.13162,-0.51707 0.43247,-0.90253 0.30084,-0.38546 0.78972,-0.6017 0.49828,-0.22563 1.23159,-0.22563 0.75211,0 1.55124,0.21623 0.79912,0.21623 1.45722,0.69571 0.66751,0.47947 1.09057,1.24099 0.42307,0.75212 0.42307,1.83328 0,0.89314 -0.25384,1.59825 -0.25384,0.69571 -0.69571,1.18458 -0.44187,0.48888 -1.03416,0.74272 -0.59229,0.25383 -1.2692,0.26324 -0.34785,0.009 -0.73331,-0.0846 -0.38546,-0.094 -0.71451,-0.30084 -0.32905,-0.21624 -0.54528,-0.56409 -0.21624,-0.34785 -0.21624,-0.85553 0,-0.48888 0.23504,-0.82733 0.23504,-0.33845 0.58289,-0.49828 0.35726,-0.16922 0.78032,-0.13162 0.42307,0.0376 0.78972,0.30085 -0.0564,0.0752 -0.13162,0.22563 -0.0752,0.14103 -0.15982,0.30085 -0.0846,0.15042 -0.15983,0.29145 -0.0752,0.14102 -0.13162,0.21623 -0.18803,-0.13162 -0.37606,-0.24444 -0.17862,-0.12222 -0.39486,-0.12222 -0.10341,0 -0.16922,0.11282 -0.0658,0.10342 -0.0752,0.27264 -0.009,0.16923 0.047,0.35726 0.0564,0.18803 0.19743,0.35725 0.15043,0.16923 0.39486,0.28205 0.24444,0.10341 0.6111,0.10341 0.40426,0 0.78972,-0.17863 0.38546,-0.18803 0.68631,-0.54528 0.30084,-0.35726 0.48887,-0.88374 0.18803,-0.53588 0.18803,-1.24099 0,-0.6675 -0.23504,-1.26919 -0.22563,-0.6111 -0.62989,-1.07177 -0.39486,-0.47007 -0.94955,-0.74271 -0.55468,-0.27264 -1.20338,-0.28205 -0.34786,0 -0.5923,0.13162 -0.23503,0.13162 -0.39486,0.36666 -0.15042,0.23504 -0.24443,0.54528 -0.094,0.30085 -0.15043,0.6393 -0.047,0.33846 -0.0752,0.68631 -0.0188,0.33845 -0.047,0.6487 -0.047,0.50768 -0.0752,1.14698 -0.0282,0.62989 -0.0282,1.335 0,0.70511 0.0188,1.44782 0.0282,0.75212 0.0752,1.48543 0.047,0.73332 0.11282,1.41962 0.0752,0.69571 0.16923,1.288 -0.38546,0.0188 -0.83673,-0.0188 -0.44187,-0.0376 -0.82733,-0.0188 z"
                       style="font-style:normal;font-variant:normal;font-weight:normal;font-stretch:normal;font-size:19.25416565px;font-family:'Penguin Attack';-inkscape-font-specification:'Penguin Attack';stroke-width:0.28881249"
                       id="path27036"
                       inkscape:connector-curvature="0" />
                    <path
                       d="m 263.33892,343.63763 q 0.15983,-0.38546 0.31025,-1.13757 0.15983,-0.75212 0.33845,-1.72047 0.17863,-0.97775 0.38546,-2.09652 0.21624,-1.11877 0.47948,-2.21874 0.27264,-1.10937 0.61109,-2.12473 0.33845,-1.02476 0.76152,-1.80508 0.43246,-0.78972 0.96835,-1.25039 0.53588,-0.47007 1.19398,-0.47007 0.56409,0 1.03416,0.33845 0.47947,0.33845 0.87433,0.93074 0.39486,0.58289 0.71451,1.37262 0.32905,0.78032 0.6017,1.67345 0.28204,0.89314 0.50768,1.85209 0.22563,0.94955 0.41366,1.87089 0.19743,0.91194 0.36666,1.74867 0.17862,0.83673 0.33845,1.49483 0.0846,0.35725 0.19743,0.74271 0.12222,0.37606 0.20683,0.79912 -0.41366,0 -0.82733,0.009 -0.41366,0.009 -0.74271,-0.009 -0.0188,-0.56408 -0.15983,-1.20338 -0.14102,-0.6393 -0.39486,-1.25039 -0.24444,-0.6205 -0.60169,-1.17518 -0.34785,-0.55469 -0.78032,-0.94955 -0.42307,-0.40426 -0.92134,-0.6111 -0.48888,-0.20683 -1.03416,-0.12221 -0.40426,0.0564 -0.78032,0.24443 -0.37606,0.18803 -0.6581,0.47948 -0.27265,0.29144 -0.42307,0.6769 -0.14102,0.37606 -0.0846,0.82733 0.047,0.37606 0.22563,0.57349 0.18803,0.18803 0.42307,0.22563 0.24444,0.0376 0.50768,-0.0564 0.26324,-0.094 0.46067,-0.29144 0.20683,-0.19743 0.30084,-0.47948 0.094,-0.28204 0,-0.62049 0.10342,-0.009 0.26324,0.0376 0.15983,0.0376 0.32906,0.0846 0.16922,0.047 0.31964,0.0846 0.15043,0.0376 0.24444,0.0188 0.11282,0.51708 -0.047,0.92135 -0.15982,0.39486 -0.47947,0.6675 -0.31025,0.27264 -0.73331,0.41366 -0.41367,0.14102 -0.81793,0.14102 -0.58289,0 -0.95895,-0.19743 -0.37605,-0.19743 -0.57348,-0.52648 -0.19743,-0.32905 -0.23504,-0.74271 -0.0376,-0.42307 0.0658,-0.85553 0.10342,-0.44187 0.32905,-0.86494 0.22564,-0.42306 0.54528,-0.75211 0.32906,-0.33845 0.74272,-0.54529 0.41366,-0.21623 0.89314,-0.23503 0.21623,-0.009 0.56408,0.0282 0.34786,0.0282 0.76152,0.15983 0.42307,0.13162 0.89314,0.39486 0.47007,0.25384 0.94014,0.70511 -0.12222,-0.44187 -0.27264,-1.13758 -0.15042,-0.69571 -0.33845,-1.47603 -0.18803,-0.78972 -0.41366,-1.57944 -0.22564,-0.79912 -0.49828,-1.43842 -0.27264,-0.6487 -0.59229,-1.05296 -0.31965,-0.41367 -0.69571,-0.42307 -0.47947,-0.009 -0.89314,0.41366 -0.40426,0.41367 -0.75211,1.13758 -0.33846,0.71451 -0.6205,1.65465 -0.27264,0.94015 -0.48887,1.96491 -0.21624,1.02476 -0.36666,2.06832 -0.15042,1.03416 -0.24444,1.9461 -0.0846,0.91194 -0.11282,1.62645 -0.0282,0.71451 0.009,1.09056 z"
                       style="font-style:normal;font-variant:normal;font-weight:normal;font-stretch:normal;font-size:19.25416565px;font-family:'Penguin Attack';-inkscape-font-specification:'Penguin Attack';stroke-width:0.28881249"
                       id="path27038"
                       inkscape:connector-curvature="0" />
                    <path
                       d="m 279.61283,338.26941 q 0.0752,0.17862 0.23503,0.33845 0.16923,0.15042 0.35726,0.22563 0.18803,0.0658 0.35725,0.0376 0.17863,-0.0282 0.26324,-0.21623 0.15983,-0.34786 -0.009,-0.6487 -0.16922,-0.31025 -0.51708,-0.53589 -0.33845,-0.23503 -0.78972,-0.36665 -0.44187,-0.14102 -0.83673,-0.15043 -0.55468,-0.009 -0.99655,0.30085 -0.44187,0.30085 -0.75212,0.78972 -0.31024,0.47948 -0.47947,1.08117 -0.15982,0.60169 -0.15982,1.18458 0,0.53588 0.12221,1.07177 0.12222,0.53588 0.38546,0.95894 0.26324,0.42307 0.67691,0.68631 0.42306,0.26324 1.00595,0.26324 0.47948,0 0.94015,-0.14102 0.46067,-0.15042 0.82733,-0.43247 0.36665,-0.28204 0.61109,-0.6863 0.24444,-0.40427 0.30085,-0.91194 0.18802,0.0282 0.37605,0.0658 0.18803,0.0376 0.37606,0.0658 -0.0846,0.6863 -0.39486,1.21278 -0.31025,0.51708 -0.77092,0.86494 -0.46067,0.34785 -1.04356,0.51708 -0.57349,0.17862 -1.18458,0.17862 -0.85553,0 -1.54184,-0.31024 -0.6863,-0.30085 -1.17518,-0.81793 -0.47947,-0.51708 -0.74271,-1.18458 -0.25384,-0.66751 -0.25384,-1.40082 0,-0.77092 0.24443,-1.51363 0.25384,-0.74272 0.72392,-1.32561 0.47947,-0.59229 1.16578,-0.94954 0.6863,-0.35726 1.56064,-0.35726 0.55468,0 1.12817,0.16923 0.58289,0.16923 1.05296,0.47947 0.47007,0.31025 0.77092,0.74272 0.30085,0.43246 0.30085,0.95895 0,0.36665 -0.19743,0.63929 -0.18803,0.26324 -0.48888,0.42307 -0.30085,0.15982 -0.6675,0.20683 -0.36666,0.047 -0.71451,-0.0188 -0.34786,-0.0658 -0.6393,-0.24444 -0.28204,-0.17863 -0.42307,-0.47947 z"
                       style="font-style:normal;font-variant:normal;font-weight:normal;font-stretch:normal;font-size:19.25416565px;font-family:'Penguin Attack';-inkscape-font-specification:'Penguin Attack';stroke-width:0.28881249"
                       id="path27040"
                       inkscape:connector-curvature="0" />
                    <path
                       d="m 288.22456,338.26941 q 0.0752,0.17862 0.23503,0.33845 0.16923,0.15042 0.35726,0.22563 0.18803,0.0658 0.35725,0.0376 0.17863,-0.0282 0.26324,-0.21623 0.15983,-0.34786 -0.009,-0.6487 -0.16922,-0.31025 -0.51708,-0.53589 -0.33845,-0.23503 -0.78972,-0.36665 -0.44187,-0.14102 -0.83673,-0.15043 -0.55468,-0.009 -0.99655,0.30085 -0.44187,0.30085 -0.75212,0.78972 -0.31025,0.47948 -0.47947,1.08117 -0.15983,0.60169 -0.15983,1.18458 0,0.53588 0.12222,1.07177 0.12222,0.53588 0.38546,0.95894 0.26324,0.42307 0.67691,0.68631 0.42306,0.26324 1.00595,0.26324 0.47948,0 0.94015,-0.14102 0.46067,-0.15042 0.82732,-0.43247 0.36666,-0.28204 0.6111,-0.6863 0.24444,-0.40427 0.30084,-0.91194 0.18803,0.0282 0.37606,0.0658 0.18803,0.0376 0.37606,0.0658 -0.0846,0.6863 -0.39486,1.21278 -0.31025,0.51708 -0.77092,0.86494 -0.46067,0.34785 -1.04356,0.51708 -0.57349,0.17862 -1.18458,0.17862 -0.85553,0 -1.54184,-0.31024 -0.68631,-0.30085 -1.17518,-0.81793 -0.47948,-0.51708 -0.74272,-1.18458 -0.25383,-0.66751 -0.25383,-1.40082 0,-0.77092 0.24443,-1.51363 0.25384,-0.74272 0.72391,-1.32561 0.47948,-0.59229 1.16578,-0.94954 0.68631,-0.35726 1.56064,-0.35726 0.55469,0 1.12818,0.16923 0.58289,0.16923 1.05296,0.47947 0.47007,0.31025 0.77092,0.74272 0.30085,0.43246 0.30085,0.95895 0,0.36665 -0.19744,0.63929 -0.18802,0.26324 -0.48887,0.42307 -0.30085,0.15982 -0.6675,0.20683 -0.36666,0.047 -0.71451,-0.0188 -0.34786,-0.0658 -0.6393,-0.24444 -0.28205,-0.17863 -0.42307,-0.47947 z"
                       style="font-style:normal;font-variant:normal;font-weight:normal;font-stretch:normal;font-size:19.25416565px;font-family:'Penguin Attack';-inkscape-font-specification:'Penguin Attack';stroke-width:0.28881249"
                       id="path27042"
                       inkscape:connector-curvature="0" />
                    <path
                       d="m 295.82093,342.65988 q -0.21624,-0.26324 -0.33846,-0.50767 -0.11281,-0.24444 -0.11281,-0.6487 0,-0.40427 0.24443,-0.67691 0.24444,-0.27264 0.6111,-0.40426 0.36665,-0.13162 0.78972,-0.12222 0.43247,0 0.79912,0.14102 0.36666,0.14102 0.6111,0.42307 0.24443,0.28204 0.24443,0.6957 0,0.5923 -0.28204,1.06237 -0.27264,0.46067 -0.72391,0.78032 -0.45127,0.31965 -1.03416,0.47947 -0.57349,0.15983 -1.17518,0.14102 -0.92134,-0.0376 -1.57004,-0.36665 -0.6487,-0.31965 -1.06237,-0.85553 -0.41366,-0.54529 -0.61109,-1.2598 -0.18803,-0.71451 -0.18803,-1.52303 0,-0.73332 0.23504,-1.41962 0.24443,-0.69571 0.7051,-1.23159 0.46068,-0.54529 1.12818,-0.86493 0.6675,-0.32906 1.53243,-0.31965 0.82733,0.009 1.39142,0.31024 0.57349,0.30085 0.94014,0.78032 0.36666,0.47948 0.55469,1.07177 0.18803,0.59229 0.23504,1.17518 -0.0282,0.34785 -0.40427,0.40426 h -5.01097 q -0.0376,0.21624 -0.009,0.54529 0.0282,0.32905 0.13162,0.7051 0.10342,0.36666 0.28204,0.74272 0.18803,0.36666 0.45127,0.6675 0.26324,0.29145 0.6111,0.47948 0.35725,0.18802 0.80852,0.18802 0.37606,0 0.78972,-0.14102 0.41367,-0.15042 0.75212,-0.40426 0.34785,-0.25384 0.55468,-0.59229 0.21624,-0.33845 0.19744,-0.71451 -0.009,-0.18803 -0.19744,-0.26324 -0.18802,-0.0752 -0.44186,-0.0658 -0.24444,0.009 -0.49828,0.094 -0.24444,0.0846 -0.37606,0.22564 -0.12222,0.14102 -0.0752,0.32905 0.0564,0.18803 0.41366,0.39486 z m 1.78627,-3.46913 q -0.0188,-0.39486 -0.14102,-0.78972 -0.12222,-0.40426 -0.36666,-0.72391 -0.23503,-0.31965 -0.59229,-0.51708 -0.34785,-0.20684 -0.82733,-0.20684 -0.47947,0 -0.87433,0.17863 -0.39486,0.16923 -0.69571,0.47007 -0.29144,0.30085 -0.48887,0.69571 -0.19743,0.39486 -0.29145,0.83673 z"
                       style="font-style:normal;font-variant:normal;font-weight:normal;font-stretch:normal;font-size:19.25416565px;font-family:'Penguin Attack';-inkscape-font-specification:'Penguin Attack';stroke-width:0.28881249"
                       id="path27044"
                       inkscape:connector-curvature="0" />
                    <path
                       d="m 299.98577,333.91654 q 0.0658,-0.33846 0.18803,-0.71451 0.13162,-0.38546 0.31965,-0.70511 0.19743,-0.32905 0.46067,-0.54529 0.26324,-0.21623 0.61109,-0.21623 0.32905,0 0.56409,0.22564 0.24444,0.21623 0.40426,0.61109 0.16923,0.38546 0.26324,0.92134 0.10342,0.52648 0.15043,1.14698 0.0564,0.61109 0.0658,1.288 0.0188,0.6769 0.0188,1.35381 0,0.21623 -0.009,0.75211 0,0.52648 -0.009,1.20339 0,0.6769 0.009,1.41962 0.009,0.73331 0.0282,1.37261 0.0282,0.62989 0.0658,1.08116 0.047,0.44187 0.12222,0.52648 -0.094,-0.009 -0.35725,-0.009 -0.26324,0 -0.56409,0.009 -0.30085,0.009 -0.56409,0.009 -0.26324,0.009 -0.35725,-0.009 0.0752,-0.0564 0.14102,-0.40426 0.0658,-0.35725 0.12222,-0.91194 0.0658,-0.55468 0.11281,-1.2786 0.047,-0.72391 0.0846,-1.52303 0.0376,-0.79912 0.0564,-1.63585 0.0188,-0.83673 0.0188,-1.62645 0.009,-0.78972 -0.0188,-1.48543 -0.0188,-0.69571 -0.0658,-1.20339 -0.0376,-0.51708 -0.11282,-0.80852 -0.0658,-0.30085 -0.16923,-0.29145 -0.24443,0.0376 -0.38546,0.19743 -0.14102,0.15983 -0.22563,0.38546 -0.0846,0.22564 -0.13162,0.48888 -0.047,0.26324 -0.0846,0.50768 z"
                       style="font-style:normal;font-variant:normal;font-weight:normal;font-stretch:normal;font-size:19.25416565px;font-family:'Penguin Attack';-inkscape-font-specification:'Penguin Attack';stroke-width:0.28881249"
                       id="path27046"
                       inkscape:connector-curvature="0" />
                    <path
                       d="m 308.6069,342.65988 q -0.21624,-0.26324 -0.33845,-0.50767 -0.11282,-0.24444 -0.11282,-0.6487 0,-0.40427 0.24444,-0.67691 0.24443,-0.27264 0.61109,-0.40426 0.36666,-0.13162 0.78972,-0.12222 0.43247,0 0.79912,0.14102 0.36666,0.14102 0.6111,0.42307 0.24444,0.28204 0.24444,0.6957 0,0.5923 -0.28205,1.06237 -0.27264,0.46067 -0.72391,0.78032 -0.45127,0.31965 -1.03416,0.47947 -0.57349,0.15983 -1.17518,0.14102 -0.92134,-0.0376 -1.57004,-0.36665 -0.6487,-0.31965 -1.06236,-0.85553 -0.41367,-0.54529 -0.6111,-1.2598 -0.18803,-0.71451 -0.18803,-1.52303 0,-0.73332 0.23504,-1.41962 0.24444,-0.69571 0.70511,-1.23159 0.46067,-0.54529 1.12817,-0.86493 0.6675,-0.32906 1.53244,-0.31965 0.82732,0.009 1.39141,0.31024 0.57349,0.30085 0.94015,0.78032 0.36665,0.47948 0.55468,1.07177 0.18803,0.59229 0.23504,1.17518 -0.0282,0.34785 -0.40426,0.40426 h -5.01098 q -0.0376,0.21624 -0.009,0.54529 0.0282,0.32905 0.13162,0.7051 0.10342,0.36666 0.28205,0.74272 0.18803,0.36666 0.45127,0.6675 0.26324,0.29145 0.61109,0.47948 0.35725,0.18802 0.80852,0.18802 0.37606,0 0.78973,-0.14102 0.41366,-0.15042 0.75211,-0.40426 0.34786,-0.25384 0.55469,-0.59229 0.21623,-0.33845 0.19743,-0.71451 -0.009,-0.18803 -0.19743,-0.26324 -0.18803,-0.0752 -0.44187,-0.0658 -0.24444,0.009 -0.49828,0.094 -0.24444,0.0846 -0.37606,0.22564 -0.12221,0.14102 -0.0752,0.32905 0.0564,0.18803 0.41367,0.39486 z m 1.78627,-3.46913 q -0.0188,-0.39486 -0.14102,-0.78972 -0.12222,-0.40426 -0.36666,-0.72391 -0.23503,-0.31965 -0.59229,-0.51708 -0.34785,-0.20684 -0.82732,-0.20684 -0.47948,0 -0.87434,0.17863 -0.39486,0.16923 -0.69571,0.47007 -0.29144,0.30085 -0.48887,0.69571 -0.19743,0.39486 -0.29145,0.83673 z"
                       style="font-style:normal;font-variant:normal;font-weight:normal;font-stretch:normal;font-size:19.25416565px;font-family:'Penguin Attack';-inkscape-font-specification:'Penguin Attack';stroke-width:0.28881249"
                       id="path27048"
                       inkscape:connector-curvature="0" />
                    <path
                       d="m 313.37343,336.32331 q 0.37606,0.0188 0.73331,-0.0188 0.36666,-0.0376 0.75212,-0.0188 -0.0376,0.15983 -0.0564,0.31965 -0.009,0.15042 -0.0282,0.29145 0.29145,-0.18803 0.55469,-0.32905 0.27264,-0.15043 0.43247,-0.20684 0.60169,-0.23503 1.21278,-0.26324 0.6205,-0.0282 1.14698,0.15983 0.52648,0.17863 0.91194,0.58289 0.38546,0.40426 0.53588,1.02476 -0.0846,0.0188 -0.24444,0.11281 -0.15042,0.0846 -0.32905,0.18803 -0.16922,0.10342 -0.32905,0.19743 -0.15982,0.0846 -0.25384,0.11282 -0.14102,-0.58289 -0.44186,-0.94015 -0.30085,-0.36665 -0.70511,-0.49827 -0.40427,-0.14102 -0.88374,-0.0564 -0.47007,0.0846 -0.96835,0.39486 -0.18803,0.13162 -0.41366,0.29144 -0.22564,0.15043 -0.35726,0.36666 -0.0658,0.56409 -0.094,0.97775 -0.0282,0.41367 -0.0282,0.78032 0,0.35726 0.0188,0.70511 0.0282,0.34785 0.0752,0.78972 0.047,0.43247 0.10341,0.99656 0.0658,0.56408 0.14103,1.3538 -0.094,0 -0.33846,0 -0.24443,0.009 -0.52648,0.0188 -0.27264,0.009 -0.51708,0.009 -0.24443,0.009 -0.33845,0.009 0.0658,-0.71451 0.13162,-1.23159 0.0658,-0.52648 0.12222,-0.93074 0.0564,-0.41367 0.10342,-0.73332 0.047,-0.32905 0.0658,-0.6487 0.0282,-0.31965 0.0282,-0.6581 0.009,-0.34785 -0.009,-0.78972 -0.0188,-0.44187 -0.0752,-1.00595 -0.047,-0.57349 -0.13162,-1.35381 z"
                       style="font-style:normal;font-variant:normal;font-weight:normal;font-stretch:normal;font-size:19.25416565px;font-family:'Penguin Attack';-inkscape-font-specification:'Penguin Attack';stroke-width:0.28881249"
                       id="path27050"
                       inkscape:connector-curvature="0" />
                    <path
                       d="m 327.55082,344.00429 q -0.42307,-0.0846 -0.75212,-0.25384 -0.31965,-0.15982 -0.53588,-0.40426 -0.24444,0.19743 -0.54529,0.34785 -0.29144,0.15043 -0.60169,0.24444 -0.31025,0.10342 -0.6299,0.15042 -0.31965,0.047 -0.61109,0.047 -0.75212,0 -1.3162,-0.18803 -0.55469,-0.18803 -0.93075,-0.48887 -0.36665,-0.31025 -0.54528,-0.69571 -0.17863,-0.39486 -0.17863,-0.79912 0.009,-0.41367 0.19743,-0.79913 0.19743,-0.39486 0.56409,-0.6957 0.37606,-0.31025 0.92134,-0.49828 0.54528,-0.18803 1.2692,-0.18803 0.63929,0 1.23159,0.17863 0.59229,0.17863 1.15637,0.42306 0.047,-0.23503 0.0658,-0.44186 0.0282,-0.21624 0.0282,-0.40427 0,-0.62989 -0.20683,-1.11877 -0.20684,-0.49828 -0.56409,-0.83673 -0.35726,-0.33845 -0.83673,-0.50768 -0.47007,-0.17862 -1.01536,-0.17862 -0.0658,0 -0.25383,0.009 -0.17863,0.009 -0.41367,0.047 -0.23503,0.0376 -0.49827,0.11282 -0.25384,0.0658 -0.47948,0.19743 -0.22563,0.13162 -0.38546,0.32905 -0.15042,0.18803 -0.17863,0.46067 -0.0188,0.17863 0.0752,0.23504 0.094,0.047 0.23503,0 0.15043,-0.047 0.31025,-0.16923 0.15982,-0.12221 0.26324,-0.29144 0.094,0 0.25384,0.047 0.15982,0.047 0.33845,0.11281 0.17863,0.0658 0.34786,0.14103 0.17862,0.0658 0.31024,0.10341 -0.10341,0.35726 -0.35725,0.59229 -0.25384,0.22564 -0.57349,0.33845 -0.31965,0.10342 -0.6675,0.0846 -0.33846,-0.0188 -0.6205,-0.15983 -0.28204,-0.14102 -0.47007,-0.39486 -0.17863,-0.26324 -0.17863,-0.6393 0,-0.47947 0.27264,-0.83672 0.28205,-0.36666 0.70511,-0.6017 0.43247,-0.23503 0.94015,-0.34785 0.50767,-0.12222 0.96835,-0.12222 0.78972,0 1.47602,0.23504 0.68631,0.23503 1.19399,0.6769 0.51708,0.43247 0.80852,1.05296 0.30085,0.6205 0.30085,1.39142 0,0.20683 -0.047,0.48887 -0.047,0.27264 -0.11282,0.59229 -0.0564,0.31025 -0.10341,0.66751 -0.047,0.34785 -0.047,0.71451 0,0.34785 0.17863,0.59229 0.17863,0.24444 0.59229,0.34785 z m -1.61705,-1.59825 q 0,-0.26324 0.047,-0.58289 0.047,-0.31964 0.10342,-0.6487 -0.58289,-0.26324 -1.18458,-0.45126 -0.59229,-0.18803 -1.14698,-0.18803 -0.39486,0 -0.71451,0.20683 -0.31025,0.19743 -0.49828,0.49828 -0.18803,0.30084 -0.22563,0.6581 -0.0376,0.34785 0.12222,0.6581 0.16922,0.31025 0.55468,0.52648 0.38546,0.20683 1.05297,0.22563 0.58289,0.0282 1.08116,-0.12222 0.50768,-0.15982 0.82733,-0.48887 -0.0188,-0.0752 -0.0188,-0.14102 0,-0.0752 0,-0.15043 z"
                       style="font-style:normal;font-variant:normal;font-weight:normal;font-stretch:normal;font-size:19.25416565px;font-family:'Penguin Attack';-inkscape-font-specification:'Penguin Attack';stroke-width:0.28881249"
                       id="path27052"
                       inkscape:connector-curvature="0" />
                    <path
                       d="m 329.32768,336.39852 q 0.48888,0.0752 0.94955,0.18803 0.47007,0.10341 0.94955,0.10341 0.0752,-1.03416 0.0752,-2.08712 0,-1.06236 -0.15042,-2.17173 l 1.25039,0.0564 q 0.0282,0.31024 0.0188,0.76151 -0.009,0.44187 -0.047,0.98716 -0.0282,0.53588 -0.0846,1.15637 -0.047,0.6111 -0.094,1.2598 0.62049,-0.047 1.23159,-0.14102 0.62049,-0.094 1.23159,-0.22564 0.009,0.094 0.0188,0.26324 0.009,0.16923 0.009,0.35726 0.009,0.17862 0.009,0.34785 0.009,0.16923 0.0188,0.26324 -0.6487,-0.047 -1.2974,-0.0564 -0.63929,-0.0188 -1.27859,-0.0188 -0.0564,0.6769 -0.10342,1.35381 -0.0376,0.6675 -0.0658,1.2786 -0.0188,0.61109 -0.009,1.14697 0.0188,0.53588 0.0752,0.94015 0.0564,0.39486 0.16923,0.6487 0.11281,0.24443 0.30084,0.29144 0.18803,0.047 0.49828,-0.10341 0.31965,-0.15043 0.6299,-0.40427 0.31965,-0.26324 0.55468,-0.58289 0.24444,-0.32905 0.29145,-0.62989 -0.047,-0.14102 -0.15043,-0.19743 -0.10341,-0.0658 -0.23503,-0.0752 -0.13162,-0.0188 -0.28204,0.009 -0.15043,0.0282 -0.29145,0.0752 -0.0752,-0.047 -0.14102,-0.15983 -0.0658,-0.12222 -0.14102,-0.24443 -0.0658,-0.13162 -0.14102,-0.25384 -0.0752,-0.12222 -0.15043,-0.18803 0.37606,-0.27264 0.77092,-0.29145 0.39486,-0.0188 0.72391,0.14102 0.32905,0.15983 0.55469,0.47008 0.22563,0.30084 0.25384,0.6769 0.0282,0.34785 -0.16923,0.70511 -0.19743,0.35725 -0.53588,0.6769 -0.33845,0.31965 -0.76152,0.58289 -0.42306,0.26324 -0.84613,0.43247 -0.42306,0.16923 -0.79912,0.22563 -0.37606,0.0658 -0.6017,-0.0188 -0.33845,-0.13162 -0.51707,-0.43246 -0.17863,-0.30085 -0.25384,-0.74272 -0.0658,-0.44187 -0.047,-1.01536 0.0188,-0.57348 0.0846,-1.25039 0.0752,-0.6769 0.16923,-1.43842 0.094,-0.77092 0.17863,-1.60765 -0.45127,0.0188 -0.89314,0.0564 -0.43247,0.0282 -0.85553,0.0564 z"
                       style="font-style:normal;font-variant:normal;font-weight:normal;font-stretch:normal;font-size:19.25416565px;font-family:'Penguin Attack';-inkscape-font-specification:'Penguin Attack';stroke-width:0.28881249"
                       id="path27054"
                       inkscape:connector-curvature="0" />
                    <path
                       d="m 336.77363,338.28821 q 0.0658,-0.33845 0.18803,-0.72391 0.13162,-0.38546 0.31965,-0.70511 0.19743,-0.32905 0.46067,-0.53588 0.26324,-0.21624 0.6111,-0.21624 0.32905,0 0.57348,0.22564 0.25384,0.21623 0.43247,0.60169 0.18803,0.38546 0.31025,0.91194 0.12222,0.52648 0.18803,1.13758 0.0752,0.61109 0.10341,1.288 0.0282,0.6675 0.0282,1.3444 0,0.32905 -0.009,0.6393 -0.009,0.30085 0,0.56409 0.009,0.26324 0.0564,0.47947 0.0564,0.20683 0.16922,0.33845 -0.094,-0.009 -0.40426,-0.009 -0.30085,0 -0.6487,0.009 -0.34785,0.009 -0.6581,0.009 -0.30085,0.009 -0.39486,-0.009 0.094,-0.0752 0.17862,-0.40426 0.0846,-0.33845 0.15983,-0.82733 0.0752,-0.49827 0.13162,-1.10937 0.0658,-0.61109 0.094,-1.23159 0.0282,-0.62049 0.0282,-1.20338 0.009,-0.59229 -0.0282,-1.04356 -0.0282,-0.45127 -0.11281,-0.71451 -0.0752,-0.27264 -0.19743,-0.26324 -0.24444,0.0376 -0.39486,0.19743 -0.14103,0.15982 -0.22564,0.38546 -0.0846,0.22563 -0.13162,0.48887 -0.0376,0.26324 -0.0752,0.50768 z m 2.13413,-5.52805 q 0,0.11282 -0.0376,0.30085 -0.0282,0.18802 -0.047,0.37605 -0.0188,0.18803 -0.009,0.33846 0.0188,0.14102 0.11281,0.15982 0.14103,0.0282 0.30085,-0.14102 0.16923,-0.16923 0.30085,-0.40426 0.14102,-0.24444 0.20683,-0.47948 0.0752,-0.23503 0.0282,-0.34785 -0.0752,-0.16923 -0.28204,-0.23504 -0.20683,-0.0658 -0.47007,-0.0376 -0.25384,0.0188 -0.54529,0.12222 -0.28204,0.10341 -0.52648,0.27264 -0.24444,0.16922 -0.41366,0.39486 -0.16923,0.21623 -0.19743,0.47007 -0.0188,0.23504 0.047,0.40426 0.0752,0.15983 0.19743,0.29145 0.13162,0.13162 0.28204,0.24444 0.15042,0.11281 0.29144,0.25383 -0.13162,0.13162 -0.26324,0.27265 -0.13162,0.13162 -0.28204,0.26324 -0.17863,-0.17863 -0.37606,-0.34786 -0.18803,-0.17862 -0.34785,-0.36665 -0.15042,-0.19743 -0.25384,-0.42307 -0.10342,-0.22563 -0.10342,-0.49828 0,-0.39486 0.25384,-0.76151 0.25384,-0.37606 0.6487,-0.6581 0.40426,-0.28205 0.88374,-0.45127 0.48887,-0.16923 0.94955,-0.16923 0.22563,0 0.45126,0.0658 0.22564,0.0658 0.40427,0.17863 0.18803,0.11282 0.30084,0.27264 0.11282,0.15042 0.11282,0.32905 0,0.19743 -0.0658,0.44187 -0.0564,0.24444 -0.15982,0.50768 -0.10342,0.25384 -0.25384,0.49827 -0.15043,0.23504 -0.32905,0.43247 -0.17863,0.18803 -0.38546,0.30085 -0.20684,0.11281 -0.42307,0.11281 -0.22563,0 -0.44187,-0.10341 -0.21623,-0.10342 -0.37605,-0.27264 -0.15983,-0.17863 -0.25384,-0.40427 -0.0846,-0.23503 -0.0564,-0.48887 z"
                       style="font-style:normal;font-variant:normal;font-weight:normal;font-stretch:normal;font-size:19.25416565px;font-family:'Penguin Attack';-inkscape-font-specification:'Penguin Attack';stroke-width:0.28881249"
                       id="path27056"
                       inkscape:connector-curvature="0" />
                    <path
                       d="m 345.82722,336.9532 q -0.62049,0.0564 -1.07176,0.33846 -0.45127,0.28204 -0.74271,0.72391 -0.28205,0.43246 -0.42307,0.97775 -0.14102,0.53588 -0.14102,1.09997 0,0.53588 0.14102,1.09997 0.15042,0.56408 0.45127,1.02476 0.31025,0.46067 0.78032,0.76151 0.47947,0.29145 1.14698,0.29145 0.57348,0 1.02475,-0.27264 0.45127,-0.27265 0.76152,-0.71451 0.31025,-0.44187 0.47007,-0.99656 0.16923,-0.55468 0.16923,-1.11877 0,-0.38546 -0.0658,-0.85553 -0.0564,-0.47007 -0.19743,-0.87434 -0.14102,-0.41366 -0.37606,-0.6863 -0.22563,-0.27264 -0.55468,-0.27264 -0.22564,0 -0.47008,0.24443 -0.24443,0.24444 -0.46067,0.6205 -0.21623,0.37606 -0.39486,0.82733 -0.16922,0.44186 -0.26324,0.83673 -0.094,0.39486 -0.10341,0.6863 0,0.28204 0.13162,0.34785 0.17862,0.0846 0.31964,-0.0282 0.15043,-0.11282 0.25384,-0.31965 0.11282,-0.20683 0.18803,-0.46067 0.0752,-0.25384 0.12222,-0.45127 0.0846,0.0376 0.22564,0.11282 0.15042,0.0658 0.30084,0.14102 0.15983,0.0752 0.30085,0.14102 0.15042,0.0658 0.23504,0.094 -0.0846,0.28204 -0.27265,0.55468 -0.17862,0.27264 -0.43246,0.48888 -0.25384,0.21623 -0.55469,0.35725 -0.29144,0.13162 -0.59229,0.13162 -0.30085,0 -0.48888,-0.10341 -0.18802,-0.10342 -0.30084,-0.28205 -0.10342,-0.17862 -0.15042,-0.40426 -0.0376,-0.23504 -0.0376,-0.47947 0,-0.40427 0.094,-0.84613 0.094,-0.44187 0.25384,-0.86494 0.15983,-0.43246 0.37606,-0.81792 0.22564,-0.38546 0.47947,-0.67691 0.25384,-0.29144 0.52649,-0.46067 0.27264,-0.17863 0.55468,-0.17863 0.59229,0 1.09057,0.28205 0.50768,0.28204 0.86493,0.75211 0.36666,0.47008 0.57349,1.09057 0.20683,0.6111 0.20683,1.2786 0,0.78972 -0.29144,1.51363 -0.29145,0.71451 -0.79913,1.2598 -0.50767,0.54528 -1.18458,0.86493 -0.6769,0.32905 -1.43842,0.32905 -0.87433,0 -1.60765,-0.34785 -0.73331,-0.33846 -1.26919,-0.89314 -0.52648,-0.56409 -0.81793,-1.2786 -0.29144,-0.71451 -0.27264,-1.44782 0.009,-0.77092 0.29144,-1.44782 0.28205,-0.68631 0.77092,-1.21279 0.48888,-0.52648 1.15638,-0.85553 0.67691,-0.32905 1.47603,-0.39486 z"
                       style="font-style:normal;font-variant:normal;font-weight:normal;font-stretch:normal;font-size:19.25416565px;font-family:'Penguin Attack';-inkscape-font-specification:'Penguin Attack';stroke-width:0.28881249"
                       id="path27058"
                       inkscape:connector-curvature="0" />
                    <path
                       d="m 351.13905,338.28821 q 0.0658,-0.33845 0.18803,-0.72391 0.12222,-0.38546 0.31024,-0.70511 0.19744,-0.32905 0.46068,-0.53588 0.27264,-0.21624 0.62049,-0.21624 0.45127,0 0.72391,0.25384 0.27264,0.25384 0.45127,0.69571 0.31965,-0.34785 0.74272,-0.55468 0.43246,-0.21624 0.90254,-0.28205 0.47947,-0.0752 0.96835,-0.009 0.48887,0.0658 0.92134,0.27264 0.44187,0.20683 0.78972,0.55469 0.34785,0.34785 0.54528,0.82733 0.18803,0.46067 0.28205,0.94014 0.10341,0.47947 0.14102,0.98715 0.047,0.50768 0.047,1.04356 0.009,0.52648 0.009,1.09057 0,0.23504 0,0.38546 0.009,0.15042 0.0376,0.31965 0.0282,0.15982 0.094,0.38546 0.0658,0.22563 0.17862,0.62049 h -1.85208 q 0.10341,-0.26324 0.15982,-0.55468 0.0564,-0.29145 0.0846,-0.58289 0.0282,-0.30085 0.0376,-0.57349 0.009,-0.28204 0.009,-0.52648 0,-0.78032 -0.0752,-1.54184 -0.0658,-0.76152 -0.36665,-1.51363 -0.28205,-0.70511 -0.75212,-1.04356 -0.46067,-0.34786 -0.96835,-0.35726 -0.49828,-0.009 -0.95895,0.31025 -0.46067,0.31965 -0.73331,0.94955 0.0752,0.74271 0.0752,1.61705 0,0.87433 0,1.75807 0,0.32905 0.009,0.6393 0.009,0.31024 0.047,0.58289 0.0376,0.27264 0.10342,0.48887 0.0752,0.21623 0.18803,0.34785 -0.094,-0.009 -0.39487,-0.009 -0.30084,0 -0.6487,0.009 -0.34785,0.009 -0.6581,0.009 -0.30084,0.009 -0.39486,-0.009 0.0752,-0.0752 0.14102,-0.41366 0.0752,-0.33845 0.14103,-0.82733 0.0658,-0.49827 0.11281,-1.10937 0.0564,-0.61109 0.0846,-1.23159 0.0376,-0.62989 0.047,-1.21278 0.009,-0.58289 -0.0188,-1.03416 -0.0188,-0.45127 -0.0846,-0.71451 -0.0658,-0.27265 -0.16923,-0.25384 -0.24444,0.0376 -0.39486,0.19743 -0.14102,0.15982 -0.22563,0.38546 -0.0846,0.22563 -0.13162,0.48887 -0.0376,0.26324 -0.0752,0.50768 z"
                       style="font-style:normal;font-variant:normal;font-weight:normal;font-stretch:normal;font-size:19.25416565px;font-family:'Penguin Attack';-inkscape-font-specification:'Penguin Attack';stroke-width:0.28881249"
                       id="path27060"
                       inkscape:connector-curvature="0" />
                    <path
                       d="m 373.30766,331.7354 q -0.48887,-0.15982 -0.98715,-0.27264 -0.49828,-0.11282 -1.03416,-0.11282 -0.62049,0 -1.14697,0.18803 -0.51708,0.18803 -0.87434,0.47007 -0.34785,0.28205 -0.50768,0.6111 -0.15982,0.31965 -0.0658,0.60169 0.10342,0.28204 0.48888,0.47007 0.39486,0.18803 1.12817,0.18803 0.34786,0 0.54529,-0.12222 0.19743,-0.12222 0.21623,-0.27264 0.0282,-0.15042 -0.15042,-0.27264 -0.17863,-0.13162 -0.5923,-0.14102 l 1.32561,-0.84613 q 0.39486,0.19743 0.56409,0.46067 0.17862,0.25384 0.16922,0.51708 -0.009,0.26324 -0.18803,0.51708 -0.16922,0.25384 -0.46067,0.45127 -0.29144,0.18803 -0.69571,0.31024 -0.39486,0.12222 -0.84613,0.12222 -0.42306,0 -0.89313,-0.10341 -0.47008,-0.11282 -0.87434,-0.31965 -0.40426,-0.21624 -0.6675,-0.52648 -0.26324,-0.31025 -0.26324,-0.72392 0,-0.45126 0.17863,-0.79912 0.17862,-0.35725 0.47947,-0.62049 0.30085,-0.26324 0.68631,-0.44187 0.38546,-0.17863 0.78972,-0.28205 0.40426,-0.11281 0.80852,-0.15982 0.40426,-0.047 0.73331,-0.047 0.57349,0 1.06237,0.11282 0.49828,0.11282 0.94954,0.28204 0.45127,0.15983 0.88374,0.35726 0.43247,0.19743 0.89314,0.36666 0.46067,0.15982 0.95895,0.27264 0.49827,0.11281 1.09056,0.11281 0.75212,0 1.38202,-0.27264 0.62989,-0.27264 1.15638,-0.78032 0.0752,0.047 0.24443,0.16923 0.16923,0.11282 0.34786,0.24444 0.18803,0.13162 0.34785,0.25384 0.16923,0.11281 0.25384,0.15982 -0.83673,0.71451 -1.59825,0.98715 -0.76151,0.27264 -1.49483,0.25384 -0.72391,-0.0188 -1.41962,-0.24444 -0.6957,-0.22563 -1.40081,-0.51708 -0.32905,2.91445 -0.31025,5.75369 0.0188,2.82984 0.31025,5.54685 -0.094,0 -0.34786,0 -0.25383,0.009 -0.53588,0.0188 -0.28204,0.009 -0.53588,0.009 -0.25384,0.009 -0.34785,0.009 0.094,-1.41962 0.18802,-2.87684 0.094,-1.46663 0.14103,-2.96146 0.047,-1.49483 0.0282,-3.01786 -0.0188,-1.53244 -0.15042,-3.08368 z"
                       style="font-style:normal;font-variant:normal;font-weight:normal;font-stretch:normal;font-size:19.25416565px;font-family:'Penguin Attack';-inkscape-font-specification:'Penguin Attack';stroke-width:0.28881249"
                       id="path27062"
                       inkscape:connector-curvature="0" />
                    <path
                       d="m 381.19548,336.9532 q -0.6205,0.0564 -1.07176,0.33846 -0.45127,0.28204 -0.74272,0.72391 -0.28204,0.43246 -0.42306,0.97775 -0.14103,0.53588 -0.14103,1.09997 0,0.53588 0.14103,1.09997 0.15042,0.56408 0.45126,1.02476 0.31025,0.46067 0.78033,0.76151 0.47947,0.29145 1.14697,0.29145 0.57349,0 1.02476,-0.27264 0.45127,-0.27265 0.76152,-0.71451 0.31024,-0.44187 0.47007,-0.99656 0.16923,-0.55468 0.16923,-1.11877 0,-0.38546 -0.0658,-0.85553 -0.0564,-0.47007 -0.19744,-0.87434 -0.14102,-0.41366 -0.37605,-0.6863 -0.22564,-0.27264 -0.55469,-0.27264 -0.22563,0 -0.47007,0.24443 -0.24444,0.24444 -0.46067,0.6205 -0.21624,0.37606 -0.39486,0.82733 -0.16923,0.44186 -0.26324,0.83673 -0.094,0.39486 -0.10342,0.6863 0,0.28204 0.13162,0.34785 0.17863,0.0846 0.31965,-0.0282 0.15042,-0.11282 0.25384,-0.31965 0.11282,-0.20683 0.18803,-0.46067 0.0752,-0.25384 0.12222,-0.45127 0.0846,0.0376 0.22563,0.11282 0.15043,0.0658 0.30085,0.14102 0.15982,0.0752 0.30084,0.14102 0.15043,0.0658 0.23504,0.094 -0.0846,0.28204 -0.27264,0.55468 -0.17863,0.27264 -0.43247,0.48888 -0.25384,0.21623 -0.55468,0.35725 -0.29145,0.13162 -0.59229,0.13162 -0.30085,0 -0.48888,-0.10341 -0.18803,-0.10342 -0.30085,-0.28205 -0.10341,-0.17862 -0.15042,-0.40426 -0.0376,-0.23504 -0.0376,-0.47947 0,-0.40427 0.094,-0.84613 0.094,-0.44187 0.25384,-0.86494 0.15982,-0.43246 0.37606,-0.81792 0.22563,-0.38546 0.47947,-0.67691 0.25384,-0.29144 0.52648,-0.46067 0.27264,-0.17863 0.55469,-0.17863 0.59229,0 1.09056,0.28205 0.50768,0.28204 0.86494,0.75211 0.36665,0.47008 0.57349,1.09057 0.20683,0.6111 0.20683,1.2786 0,0.78972 -0.29145,1.51363 -0.29144,0.71451 -0.79912,1.2598 -0.50768,0.54528 -1.18458,0.86493 -0.67691,0.32905 -1.43842,0.32905 -0.87434,0 -1.60765,-0.34785 -0.73331,-0.33846 -1.2692,-0.89314 -0.52648,-0.56409 -0.81792,-1.2786 -0.29145,-0.71451 -0.27264,-1.44782 0.009,-0.77092 0.29144,-1.44782 0.28204,-0.68631 0.77092,-1.21279 0.48887,-0.52648 1.15638,-0.85553 0.6769,-0.32905 1.47602,-0.39486 z"
                       style="font-style:normal;font-variant:normal;font-weight:normal;font-stretch:normal;font-size:19.25416565px;font-family:'Penguin Attack';-inkscape-font-specification:'Penguin Attack';stroke-width:0.28881249"
                       id="path27064"
                       inkscape:connector-curvature="0" />
                    <path
                       d="m 390.4277,336.9532 q -0.62049,0.0564 -1.07176,0.33846 -0.45127,0.28204 -0.74272,0.72391 -0.28204,0.43246 -0.42306,0.97775 -0.14102,0.53588 -0.14102,1.09997 0,0.53588 0.14102,1.09997 0.15042,0.56408 0.45127,1.02476 0.31025,0.46067 0.78032,0.76151 0.47947,0.29145 1.14698,0.29145 0.57348,0 1.02475,-0.27264 0.45127,-0.27265 0.76152,-0.71451 0.31025,-0.44187 0.47007,-0.99656 0.16923,-0.55468 0.16923,-1.11877 0,-0.38546 -0.0658,-0.85553 -0.0564,-0.47007 -0.19743,-0.87434 -0.14102,-0.41366 -0.37606,-0.6863 -0.22563,-0.27264 -0.55468,-0.27264 -0.22564,0 -0.47008,0.24443 -0.24444,0.24444 -0.46067,0.6205 -0.21623,0.37606 -0.39486,0.82733 -0.16923,0.44186 -0.26324,0.83673 -0.094,0.39486 -0.10342,0.6863 0,0.28204 0.13162,0.34785 0.17863,0.0846 0.31965,-0.0282 0.15043,-0.11282 0.25384,-0.31965 0.11282,-0.20683 0.18803,-0.46067 0.0752,-0.25384 0.12222,-0.45127 0.0846,0.0376 0.22564,0.11282 0.15042,0.0658 0.30084,0.14102 0.15983,0.0752 0.30085,0.14102 0.15042,0.0658 0.23503,0.094 -0.0846,0.28204 -0.27264,0.55468 -0.17863,0.27264 -0.43246,0.48888 -0.25384,0.21623 -0.55469,0.35725 -0.29144,0.13162 -0.59229,0.13162 -0.30085,0 -0.48888,-0.10341 -0.18803,-0.10342 -0.30084,-0.28205 -0.10342,-0.17862 -0.15043,-0.40426 -0.0376,-0.23504 -0.0376,-0.47947 0,-0.40427 0.094,-0.84613 0.094,-0.44187 0.25384,-0.86494 0.15983,-0.43246 0.37606,-0.81792 0.22563,-0.38546 0.47947,-0.67691 0.25384,-0.29144 0.52648,-0.46067 0.27265,-0.17863 0.55469,-0.17863 0.59229,0 1.09057,0.28205 0.50768,0.28204 0.86493,0.75211 0.36666,0.47008 0.57349,1.09057 0.20683,0.6111 0.20683,1.2786 0,0.78972 -0.29144,1.51363 -0.29145,0.71451 -0.79913,1.2598 -0.50767,0.54528 -1.18458,0.86493 -0.6769,0.32905 -1.43842,0.32905 -0.87433,0 -1.60765,-0.34785 -0.73331,-0.33846 -1.26919,-0.89314 -0.52648,-0.56409 -0.81793,-1.2786 -0.29144,-0.71451 -0.27264,-1.44782 0.009,-0.77092 0.29144,-1.44782 0.28205,-0.68631 0.77092,-1.21279 0.48888,-0.52648 1.15638,-0.85553 0.6769,-0.32905 1.47603,-0.39486 z"
                       style="font-style:normal;font-variant:normal;font-weight:normal;font-stretch:normal;font-size:19.25416565px;font-family:'Penguin Attack';-inkscape-font-specification:'Penguin Attack';stroke-width:0.28881249"
                       id="path27066"
                       inkscape:connector-curvature="0" />
                    <path
                       d="m 394.60193,333.91654 q 0.0658,-0.33846 0.18803,-0.71451 0.13162,-0.38546 0.31965,-0.70511 0.19743,-0.32905 0.46067,-0.54529 0.26324,-0.21623 0.6111,-0.21623 0.32905,0 0.56408,0.22564 0.24444,0.21623 0.40427,0.61109 0.16922,0.38546 0.26324,0.92134 0.10341,0.52648 0.15042,1.14698 0.0564,0.61109 0.0658,1.288 0.0188,0.6769 0.0188,1.35381 0,0.21623 -0.009,0.75211 0,0.52648 -0.009,1.20339 0,0.6769 0.009,1.41962 0.009,0.73331 0.0282,1.37261 0.0282,0.62989 0.0658,1.08116 0.047,0.44187 0.12222,0.52648 -0.094,-0.009 -0.35726,-0.009 -0.26324,0 -0.56409,0.009 -0.30084,0.009 -0.56408,0.009 -0.26324,0.009 -0.35726,-0.009 0.0752,-0.0564 0.14102,-0.40426 0.0658,-0.35725 0.12222,-0.91194 0.0658,-0.55468 0.11282,-1.2786 0.047,-0.72391 0.0846,-1.52303 0.0376,-0.79912 0.0564,-1.63585 0.0188,-0.83673 0.0188,-1.62645 0.009,-0.78972 -0.0188,-1.48543 -0.0188,-0.69571 -0.0658,-1.20339 -0.0376,-0.51708 -0.11282,-0.80852 -0.0658,-0.30085 -0.16922,-0.29145 -0.24444,0.0376 -0.38546,0.19743 -0.14102,0.15983 -0.22564,0.38546 -0.0846,0.22564 -0.13162,0.48888 -0.047,0.26324 -0.0846,0.50768 z"
                       style="font-style:normal;font-variant:normal;font-weight:normal;font-stretch:normal;font-size:19.25416565px;font-family:'Penguin Attack';-inkscape-font-specification:'Penguin Attack';stroke-width:0.28881249"
                       id="path27068"
                       inkscape:connector-curvature="0" />
                  </g>
                </g>
              </g>
            </g>
          </g>
        </g>
      </g>
    </g>
    <path
       sodipodi:type="spiral"
       style="opacity:1;fill:none;fill-rule:evenodd;stroke:#000000;stroke-width:10.04061031;stroke-miterlimit:4;stroke-dasharray:none;stroke-opacity:0.89539747"
       id="path26684"
       sodipodi:cx="76.094383"
       sodipodi:cy="159.51855"
       sodipodi:expansion="1"
       sodipodi:revolution="16.193104"
       sodipodi:radius="284.7999"
       sodipodi:argument="-18.867735"
       sodipodi:t0="0.018410996"
       d="m 74.623983,164.55161 c -4.498751,0.94062 -7.789815,-3.70544 -7.783167,-7.73647 0.01128,-6.83723 6.819029,-11.32897 13.189997,-10.77066 9.134196,0.80046 14.925298,9.95568 13.758153,18.64352 -1.535212,11.4276 -13.099767,18.54571 -24.097041,16.74564 -13.721577,-2.24598 -22.178591,-16.24725 -19.733139,-29.55056 2.944198,-16.01649 19.396652,-25.81877 35.004085,-22.72063 18.312219,3.63505 29.463589,22.54724 25.708129,40.45761 -4.32122,20.60856 -25.698648,33.11152 -45.911134,28.69562 -22.905386,-5.00424 -36.761664,-28.85063 -31.683111,-51.36466 5.685016,-25.20257 32.003023,-40.41342 56.818175,-34.6706 27.50005,6.36417 44.06639,35.15575 37.6581,62.2717 -7.04209,29.79775 -38.308735,47.7203 -67.725222,40.64559 C 27.732165,207.47865 8.4528478,173.73579 16.194724,142.01896 24.590003,107.62529 60.809985,86.988757 94.826988,95.398388 131.51882,104.46929 153.51293,143.16713 144.43506,179.48417 134.68903,218.47426 93.512726,241.82624 54.895749,232.07974 13.60732,221.65898 -11.102786,178.00372 -0.68730623,137.08691 10.407836,93.500063 56.542475,67.431625 99.759046,78.516358 145.64436,90.285604 173.07131,138.89997 161.31709,184.41623 148.87398,232.60008 97.779583,261.38569 49.963691,248.96177 -0.51873125,235.845 -30.663134,182.27032 -17.569337,132.15485 -3.7791004,79.37381 52.276097,47.8705 104.6911,61.634327 159.77079,76.097881 192.63311,134.63379 178.19912,189.34829 163.06238,246.72666 102.0456,280.94807 45.031633,265.8438 -14.645447,250.034 -50.226034,186.53619 -34.451367,127.22279 -17.968619,65.246976 48.010364,28.307147 109.62316,44.752296 173.89773,61.907903 212.19687,130.36817 195.08115,194.28035 177.25277,260.8537 106.31111,300.51219 40.099574,282.72583 -28.772566,264.22475 -69.790468,190.8016 -51.333398,122.29073 -32.159693,51.119781 43.745032,8.7424237 114.55522,27.870266 188.025,47.716537 231.76185,126.10292 211.96318,199.21241 191.4444,274.98102 110.57629,320.07741 35.167516,299.60786 -42.899948,278.41662 -89.355899,195.06672 -68.215429,117.35867 -46.351775,36.992348 39.479967,-10.823201 119.48728,10.988235 202.15248,33.524258 251.32765,121.8379 228.84521,204.14447 205.63686,289.10854 114.84126,339.64337 30.235457,316.48989 -57.02751,292.60924 -108.92201,199.33164 -85.097459,112.42661 -60.544549,22.864749 35.215089,-30.389451 124.41934,-5.8937954 216.28011,19.331346 270.89403,117.57306 245.72724,209.07652 219.8299,303.23621 119.10606,359.20986 25.303399,333.37192 -71.155203,306.8024 -128.48861,203.59642 -101.97949,107.49456 -74.737817,8.7370294 30.950348,-49.956153 129.3514,-22.775826 230.40785,5.1379768 290.46082,113.30835 262.60927,214.00858 234.02336,317.36397 123.37075,378.77674 20.371341,350.25395 -85.282991,320.99595 -148.05558,207.86108 -118.86152,102.5625 -88.93145,-5.3907793 26.685708,-69.52319 134.28346,-39.657857 244.53568,-9.0557335 310.02793,109.04373 279.4913,218.94064 248.21714,331.49182 127.63535,398.34392 15.439282,367.13598 -99.410853,335.1898 -167.62281,212.12566 -135.74355,97.630439 -103.12536,-19.518657 22.421146,-89.090486 139.21551,-56.539887 258.66357,-23.249705 329.59528,104.77919 296.37333,223.8727 262.41117,345.61973 131.89988,417.91132 10.507224,384.01801 -113.53877,349.38388 -187.19026,216.39017 -152.62558,92.698381 -117.31949,-33.646588 18.156646,-108.65798 144.14757,-73.421918 272.79152,-37.44388 349.16282,100.5147 313.25536,228.80476 276.60539,359.74768 136.16435,437.4789 5.5751653,400.90004 -127.66674,363.57814 -206.75788,220.65463 -169.50761,87.766322 -131.51379,-47.774562 13.892195,-128.22564 149.07963,-90.303948 286.9195,-51.638218 368.73051,96.25026 330.13739,233.73682 290.79976,373.87567 140.42878,457.04663 0.64310689,417.78207 -141.79474,377.77255 -226.32564,224.91905 -186.38964,82.834264 -145.70823,-61.90257 9.6277839,-147.79343 154.01169,-107.18598 301.04752,-65.832688 388.29833,91.985858 347.01942,238.66887 323.47577,322.33036 261.08546,391.79048 180.58587,424.45724"
       transform="matrix(0.04572306,0,0,0.04700848,93.368409,139.06699)" />
  </g>
</svg>
