<?xml version="1.0" encoding="UTF-8" standalone="no"?>
<!-- Created with Inkscape (http://www.inkscape.org/) -->

<svg
   width="265.83902mm"
   height="33.526127mm"
   viewBox="0 0 265.83902 33.526127"
   version="1.1"
   id="svg5"
   inkscape:version="1.1.1 (3bf5ae0d25, 2021-09-20)"
   sodipodi:docname="logo.svg"
   xmlns:inkscape="http://www.inkscape.org/namespaces/inkscape"
   xmlns:sodipodi="http://sodipodi.sourceforge.net/DTD/sodipodi-0.dtd"
   xmlns="http://www.w3.org/2000/svg"
   xmlns:svg="http://www.w3.org/2000/svg">
  <sodipodi:namedview
     id="namedview7"
     pagecolor="#ffffff"
     bordercolor="#666666"
     borderopacity="1.0"
     inkscape:pageshadow="2"
     inkscape:pageopacity="0.0"
     inkscape:pagecheckerboard="0"
     inkscape:document-units="mm"
     showgrid="false"
     inkscape:zoom="3.9105941"
     inkscape:cx="392.90705"
     inkscape:cy="112.38702"
     inkscape:window-width="1920"
     inkscape:window-height="1016"
     inkscape:window-x="0"
     inkscape:window-y="0"
     inkscape:window-maximized="1"
     inkscape:current-layer="layer1"
     fit-margin-top="0"
     fit-margin-left="0"
     fit-margin-right="0"
     fit-margin-bottom="0" />
  <defs
     id="defs2">
    <rect
       x="215.39445"
       y="354.39587"
       width="355.63449"
       height="137.04359"
       id="rect11115" />
  </defs>
  <g
     inkscape:label="Layer 1"
     inkscape:groupmode="layer"
     id="layer1"
     transform="translate(71.683013,-102.20538)">
    <path
       sodipodi:type="spiral"
       style="opacity:1;fill:none;fill-rule:evenodd;stroke:#303030;stroke-width:10.04527655;stroke-miterlimit:4;stroke-dasharray:none;stroke-opacity:1"
       id="path26684"
       sodipodi:cx="76.094383"
       sodipodi:cy="159.51855"
       sodipodi:expansion="1"
       sodipodi:revolution="16.190001"
       sodipodi:radius="284.7999"
       sodipodi:argument="-18.867735"
       sodipodi:t0="0.018410996"
       transform="matrix(-0.01699343,0.00720463,0.00740718,0.01747117,8.2833519,126.85147)"
       d="m 74.62579,164.55214 c -4.498723,0.94267 -7.791842,-3.70265 -7.786753,-7.73391 0.0086,-6.83802 6.815553,-11.33278 13.187411,-10.77678 9.135709,0.79716 14.930906,9.95151 13.766799,18.6409 -1.531238,11.42983 -13.094899,18.55314 -24.094399,16.75683 -13.724488,-2.24133 -22.187843,-16.24169 -19.746847,-29.5479 2.938853,-16.02009 19.390379,-25.82985 35.001389,-22.73687 18.3165,3.62902 29.47649,22.54027 25.72689,40.45489 -4.31449,20.61353 -25.690955,33.12626 -45.908374,28.71691 -22.911047,-4.99681 -36.778233,-28.84222 -31.706941,-51.36187 5.676901,-25.20892 31.993924,-40.43182 56.815366,-34.69696 27.507079,6.35535 44.086629,35.14594 37.686989,62.26886 -7.03258,29.80547 -38.298218,47.74237 -67.722356,40.67701 C 27.740925,207.50439 8.4461087,173.76256 16.177928,142.0374 24.562312,107.63464 60.781258,86.981464 94.807273,95.380341 131.50887,104.43965 153.52077,143.13644 144.45436,179.46318 134.72061,218.46371 93.545372,241.83464 54.918022,232.10029 13.618465,221.69251 -11.111739,178.03833 -0.7091079,137.11046 10.372357,93.511805 56.505909,67.422118 99.734215,78.493304 145.63203,90.248177 173.08137,138.86145 161.34139,184.39012 148.91335,232.58714 97.82007,261.3963 49.99108,248.98732 -0.50519914,235.88633 -30.674303,182.31277 -17.596144,132.18352 -3.8223702,79.387939 52.23169,47.858777 104.66116,61.606268 c 55.09491,14.446396 87.98423,72.981152 73.56727,127.710792 -15.11888,57.39428 -76.1345,91.64385 -133.164292,76.5573 C -14.629527,250.08312 -50.23942,186.58647 -34.48318,127.25657 -18.01968,65.263493 47.958115,28.293206 109.5881,44.719232 173.88062,61.854894 212.21136,130.31396 195.11547,194.24401 177.30773,260.83598 106.36728,300.52724 40.137196,282.7614 -28.754258,264.28166 -69.806072,190.85973 -51.370217,122.32963 -32.218546,51.138686 43.684941,8.7262662 114.51504,27.832196 188.00549,47.655737 231.77856,126.04086 212.0025,199.17095 191.50715,274.96092 110.64031,320.09467 35.210255,299.64843 -42.879251,278.48131 -89.37372,195.1327 -68.257253,117.40269 -46.41842,37.013642 39.412034,-10.841576 119.44198,10.945159 202.13059,33.455666 251.34658,121.76801 228.88954,204.09789 205.7074,289.08606 114.91311,339.66285 30.283313,316.53547 -57.004425,292.68173 -108.94205,199.40546 -85.144289,112.47575 -60.618985,22.888431 35.139314,-30.410044 124.36892,-5.9418769 216.25583,19.254962 270.91517,117.49533 245.77657,209.02483 219.90823,303.21133 119.18576,359.23156 25.356371,333.4225 -71.129728,306.88268 -128.51087,203.67807 -102.03133,107.54881 -74.820045,8.7631014 30.866729,-49.978963 129.29587,-22.828913 230.38118,5.0538002 290.48419,113.22277 262.66361,213.95177 234.10949,317.33671 123.45829,378.80066 20.429429,350.30954 -85.255128,321.08402 -148.08005,207.95058 -118.91836,102.62186 -89.021471,-5.3623181 26.594246,-69.548219 134.22281,-39.71595 244.50662,-9.1477024 310.05351,108.95031 279.55065,218.87872 248.31106,331.46216 127.73073,398.37006 15.502487,367.19658 -99.3806,335.28566 -167.64951,212.223 -135.8054,97.694923 -103.22318,-19.487806 22.321842,-89.117733 139.14975,-56.602986 258.63212,-23.349466 329.62308,104.67792 296.43768,223.80566 262.51288,345.58768 132.0031,417.93968 10.575545,384.08361 -113.50613,349.48754 -187.21917,216.49536 -152.69243,92.767981 -117.4251,-33.613348 18.049499,-108.68745 144.07669,-73.490022 272.75768,-37.551434 349.19284,100.40559 313.32472,228.7326 276.71489,359.71324 136.27542,437.50948 5.648603,400.97065 -127.6317,363.68959 -206.78901,220.76766 -169.57947,87.841039 -131.62719,-47.738932 13.777205,-128.25732 149.00363,-90.377058 286.88327,-51.753564 368.76275,96.13331 330.21176,233.65954 290.91706,373.83885 140.54769,457.07942 0.72166113,417.85769 -141.75732,377.89179 -226.35899,225.03993 -186.46651,82.914097 -145.82942,-61.864552 9.504951,-147.82733 153.93058,-107.26409 301.0089,-65.955827 388.33279,91.861064 347.09879,238.58648 324.09012,320.45964 263.86623,388.87359 185.73155,422.3696" />
    <path
       style="fill:none;stroke:#303030;stroke-width:0.305033;stroke-linecap:butt;stroke-linejoin:miter;stroke-miterlimit:4;stroke-dasharray:none;stroke-opacity:1"
       d="m 8.2137158,135.56902 16.2566402,1.5e-4 2.277647,2e-5 167.400247,0.003 -0.13746,0.007"
       id="path73"
       sodipodi:nodetypes="ccccc" />
    <path
       style="fill:none;stroke:none;stroke-width:0.305033;stroke-linecap:butt;stroke-linejoin:miter;stroke-miterlimit:4;stroke-dasharray:none;stroke-opacity:1"
       d="m -71.683013,103.55946 16.25664,1.5e-4 2.277647,2e-5 167.400246,0.003 -0.13746,0.007"
       id="path73-3"
       sodipodi:nodetypes="ccccc" />
    <text
       xml:space="preserve"
       transform="scale(0.26458333)"
       id="text11113"
       style="font-style:normal;font-weight:normal;font-size:192px;line-height:1.25;font-family:sans-serif;white-space:pre;shape-inside:url(#rect11115);fill:#000000;fill-opacity:1;stroke:none"><tspan
         x="215.39453"
         y="661.31445"
         id="tspan3175"><tspan
           dx="0 103.59375 117.46875 116.4375"
           id="tspan3173">LoAT</tspan></tspan></text>
    <g
       id="g39709"
       transform="matrix(0.88296656,0,0,0.88296656,-15.182633,17.65768)"
       style="fill:#303030;stroke-width:1.00003787;stroke-miterlimit:4;stroke-dasharray:none;fill-opacity:1">
      <text
         xml:space="preserve"
         style="font-style:normal;font-variant:normal;font-weight:normal;font-stretch:normal;font-size:50.8px;line-height:1.25;font-family:Quicksand;-inkscape-font-specification:'Quicksand, Normal';font-variant-ligatures:normal;font-variant-caps:normal;font-variant-numeric:normal;font-variant-east-asian:normal;fill:#303030;stroke-width:1.00003787;stroke-miterlimit:4;stroke-dasharray:none;fill-opacity:1"
         x="30.06657"
         y="131.46654"
         id="text34789"><tspan
           sodipodi:role="line"
           id="tspan34787"
           style="font-style:normal;font-variant:normal;font-weight:normal;font-stretch:normal;font-size:50.8px;font-family:Quicksand;-inkscape-font-specification:'Quicksand, Normal';font-variant-ligatures:normal;font-variant-caps:normal;font-variant-numeric:normal;font-variant-east-asian:normal;fill:#303030;stroke-width:1.00003787;stroke-miterlimit:4;stroke-dasharray:none;fill-opacity:1"
           x="30.06657"
           y="131.46654">LoAT</tspan></text>
    </g>
  </g>
</svg>
